<svg width="1440" height="1024" viewBox="0 0 1440 1024" fill="none" xmlns="http://www.w3.org/2000/svg">
<rect width="1440" height="1024" fill="#212121"/>
<path fill-rule="evenodd" clip-rule="evenodd" d="M635.77 -206L629.805 -169.018C623.84 -132.036 610.699 -58.3356 613.329 1.70898C615.457 62.2335 631.435 108.096 680.757 123.504C729.369 138.168 811.326 122.378 864.162 134.426C916.289 145.73 940.508 185.136 971.756 217.823C1002.29 249.766 1040.57 275.733 1064.79 315.139C1088.3 353.802 1097.46 407.607 1127.99 439.551C1159.24 472.237 1212.58 483.805 1228.56 529.667C1245.25 576.273 1225.78 657.436 1256.32 689.379C1287.57 722.066 1369.53 706.275 1425.17 714.22C1482.02 722.428 1512.56 754.372 1525.73 804.337C1538.91 854.302 1533.3 920.804 1530.84 954.426L1528.39 988.048L1441.54 1071.08L1425.91 1054.74C1410.29 1038.4 1379.75 1006.45 1348.5 973.766C1317.26 941.08 1286.72 909.136 1255.47 876.45C1224.93 844.506 1193.68 811.82 1162.44 779.133C1131.9 747.19 1100.65 714.504 1069.4 681.817C1038.87 649.874 1007.62 617.187 976.37 584.501C945.832 552.557 914.584 519.871 884.046 487.928C852.798 455.241 821.551 422.555 791.013 390.611C759.765 357.925 728.517 325.239 697.979 293.295C666.731 260.609 635.483 227.922 604.946 195.979C573.698 163.292 543.16 131.349 511.912 98.6626C480.664 65.9762 450.127 34.0327 434.503 17.6895L418.879 1.34633L635.77 -206Z" fill="#313233"/>
<path fill-rule="evenodd" clip-rule="evenodd" d="M164.879 -3.50002C164.879 -3.50002 115.379 68.5 242.879 115C370.379 161.5 417.557 127.376 475.457 134.49C533.826 141.156 577.902 160.066 592.241 208.824C605.871 256.84 589.764 334.705 600.824 386.597C611.175 437.748 648.934 464.117 680.136 496.754C710.628 528.65 735.272 567.557 773.031 593.926C810.081 619.553 861.892 632.488 892.384 664.384C923.586 697.022 934.177 749.362 978.253 768.272C1023.04 787.924 1101.55 775.335 1132.04 807.231C1163.24 839.869 1147.13 917.733 1154.21 972.019C1161.52 1027.49 1192.01 1059.39 1240.08 1075.91C1288.14 1092.42 1352.36 1092.08 1384.82 1092.28L1417.28 1092.48L1498.32 1015.01L1482.72 998.691C1467.12 982.372 1436.62 950.476 1405.42 917.838C1374.22 885.201 1343.73 853.305 1312.53 820.667C1282.03 788.771 1250.83 756.133 1219.63 723.495C1189.14 691.599 1157.94 658.962 1126.74 626.324C1096.24 594.428 1065.04 561.79 1033.84 529.153C1003.35 497.257 972.147 464.619 941.655 432.723C910.454 400.085 879.252 367.447 848.76 335.551C817.558 302.914 786.357 270.276 755.865 238.38C724.663 205.742 693.462 173.104 662.969 141.208C631.768 108.57 601.276 76.6744 570.074 44.0366C538.873 11.3989 508.381 -20.497 492.78 -36.8159L477.179 -53.1348L164.879 -3.50002Z" fill="#313233"/>
<path fill-rule="evenodd" clip-rule="evenodd" d="M-5.50002 306.5C-5.50002 306.5 81.4351 284.195 109.718 366.097C138 448 120.048 517.838 126.395 619.482C132.742 721.125 139.089 822.769 228.053 850.536C315.398 879.752 485.36 835.091 562.985 872.998C638.99 912.354 622.658 1034.28 617.665 1146.06C612.672 1257.84 619.019 1359.49 696.644 1397.39C772.649 1436.75 919.932 1412.37 991.954 1401.63L1065.6 1389.44L646.027 1764.61L619.364 1734.79C592.701 1704.98 539.376 1645.34 486.05 1585.71C432.724 1526.07 379.399 1466.44 326.073 1406.8C272.748 1347.16 219.422 1287.53 166.097 1227.89C112.771 1168.26 59.4453 1108.62 6.11968 1048.99C-47.2059 989.352 -100.532 929.717 -153.857 870.082C-207.183 810.446 -260.508 750.811 -287.171 720.993L-313.834 691.175L-5.50002 306.5Z" fill="#313233"/>
<path fill-rule="evenodd" clip-rule="evenodd" d="M1680.95 545.049C1680.95 545.049 1623.32 563.313 1601.23 509.299C1579.13 455.286 1588.58 407.648 1580.5 339.535C1572.41 271.423 1556.41 132.458 1503.46 187.979C1450.5 243.5 1352.5 243.858 1292.5 208C1232.5 172.142 1212 92 1230.36 3.88568C1248.71 -84.2286 1221.43 -139.584 1167.81 -162.159C1115.22 -185.77 1017.09 -163.842 969.063 -153.913L920 -142.95L1188.05 -411L1207.1 -391.95C1226.15 -372.901 1264.25 -334.801 1302.35 -296.702C1340.45 -258.603 1378.55 -220.503 1416.65 -182.404C1454.75 -144.305 1492.84 -106.205 1530.94 -68.106C1569.04 -30.0066 1607.14 8.09273 1645.24 46.1921C1683.34 84.2914 1721.44 122.391 1759.54 160.49C1797.64 198.589 1835.74 236.689 1854.79 255.739L1873.84 274.788L1680.95 545.049Z" fill="#313233"/>
</svg>
